#!OML:ASF G:\JayActor3\Patient Classification 1\Patient 1\Session 5\male.ASF
:FULLY-SPECIFIED
:DEGREES
857
root 3.96098 17.2316 8.83765 -168.326 55.9954 -168.634
lowerback 8.88013 -1.38372 7.14421
upperback 1.53212 -1.03391 0.898507
thorax -3.49987 -0.549375 -2.95997
lowerneck 0.193278 0.208493 2.12945
upperneck 2.13102 0.275651 0.761063
head 0.615196 0.167934 -0.115128
rclavicle -1.07841e-013 2.62396e-014
rhumerus -34.007 -14.4184 -83.5691
rradius 17.9692
rwrist 16.8989
rhand -21.1744 -5.79254
rfingers 7.12502
rthumb 5.20592 -35.7086
lclavicle -1.07841e-013 2.62396e-014
lhumerus -28.4367 8.33055 84.8544
lradius 4.863
lwrist 13.3945
lhand -26.4529 15.4831
lfingers 7.12502
lthumb 0.108298 45.4628
rfemur 3.06423 7.09108 34.1952
rtibia 24.1587
rfoot -16.9809 -13.4827
rtoes 3.83063
lfemur -30.4279 9.77406 -15.0853
ltibia 48.9753
lfoot -9.48802 -1.08695
ltoes -11.4997
858
root 4.11791 17.2151 8.73104 -168.657 56.0454 -168.732
lowerback 8.97477 -1.35386 7.06817
upperback 1.56967 -0.994938 0.871546
thorax -3.50845 -0.528245 -2.94942
lowerneck 0.200874 0.184694 2.12161
upperneck 2.16903 0.243768 0.789702
head 0.625277 0.152788 -0.10533
rclavicle -2.03257e-014 2.0276e-014
rhumerus -33.9214 -14.3293 -83.6413
rradius 18.0189
rwrist 16.8041
rhand -21.2289 -5.79046
rfingers 7.12502
rthumb 5.15331 -35.7078
lclavicle -2.03257e-014 2.0276e-014
lhumerus -28.4947 8.19449 84.8931
lradius 4.71601
lwrist 13.6261
lhand -26.4734 15.5144
lfingers 7.12502
lthumb 0.0885324 45.4942
rfemur 2.66421 6.71255 34.0911
rtibia 26.0289
rfoot -16.9436 -13.2604
rtoes 3.40577
lfemur -30.4112 9.74425 -15.3139
ltibia 47.2754
lfoot -9.46501 -1.22958
ltoes -11.2848
859
root 4.27408 17.1947 8.62416 -169.017 56.1267 -168.864
lowerback 9.07231 -1.32251 6.96628
upperback 1.60672 -0.956965 0.837086
thorax -3.51902 -0.507575 -2.93211
lowerneck 0.212252 0.168548 2.11666
upperneck 2.21088 0.222228 0.815249
head 0.636007 0.142872 -0.0968954
rclavicle -1.81888e-014 1.03368e-014
rhumerus -33.8434 -14.2426 -83.7155
rradius 18.0641
rwrist 16.7095
rhand -21.2737 -5.79176
rfingers 7.12502
rthumb 5.11009 -35.7101
lclavicle -1.81888e-014 1.03368e-014
lhumerus -28.5486 8.08283 84.9182
lradius 4.57574
lwrist 13.828
lhand -26.4956 15.5457
lfingers 7.12502
lthumb 0.0670841 45.5255
rfemur 2.14315 6.37564 33.9467
rtibia 28.0433
rfoot -16.9577 -13.0395
rtoes 2.98018
lfemur -30.2389 9.70963 -15.5568
ltibia 45.466
lfoot -9.4031 -1.36114
ltoes -11.0805
860
root 4.42961 17.1711 8.51711 -169.412 56.239 -169.035
lowerback 9.17438 -1.2897 6.837
upperback 1.64386 -0.920163 0.793828
thorax -3.53191 -0.487426 -2.90848
lowerneck 0.227174 0.160013 2.11634
upperneck 2.25715 0.210974 0.837159
head 0.647599 0.138177 -0.0902701
rclavicle -3.37934e-015 2.0276e-014
rhumerus -33.7743 -14.1654 -83.7897
rradius 18.1041
rwrist 16.6192
rhand -21.3134 -5.79587
rfingers 7.12502
rthumb 5.07178 -35.7152
lclavicle -3.37934e-015 2.0276e-014
lhumerus -28.5955 7.99455 84.9294
lradius 4.43858
lwrist 13.9984
lhand -26.5181 15.571
lfingers 7.12502
lthumb 0.0453102 45.5507
rfemur 1.52656 6.08715 33.7626
rtibia 30.1494
rfoot -17.0038 -12.835
rtoes 2.48709
lfemur -29.9131 9.67756 -15.8139
ltibia 43.5644
lfoot -9.29403 -1.48351
ltoes -10.91
861
root 4.58461 17.1451 8.40997 -169.85 56.3804 -169.254
lowerback 9.27856 -1.25511 6.67416
upperback 1.6827 -0.885064 0.741875
thorax -3.5441 -0.467846 -2.87494
lowerneck 0.244944 0.158577 2.12031
upperneck 2.30832 0.209319 0.854326
head 0.660308 0.138354 -0.0857374
rclavicle 3.89618e-014 -6.36111e-015
rhumerus -33.7123 -14.0961 -83.864
rradius 18.1385
rwrist 16.5323
rhand -21.3511 -5.80244
rfingers 7.12502
rthumb 5.03537 -35.7226
lclavicle 3.89618e-014 -6.36111e-015
lhumerus -28.6325 7.92968 84.929
lradius 4.30522
lwrist 14.1376
lhand -26.541 15.5917
lfingers 7.12502
lthumb 0.0231968 45.5715
rfemur 0.832723 5.8529 33.5366
rtibia 32.3014
rfoot -17.0747 -12.6509
rtoes 1.97867
lfemur -29.4382 9.6464 -16.0875
ltibia 41.5858
lfoot -9.12921 -1.5958
ltoes -10.7405
862
root 4.73914 17.1176 8.30289 -170.337 56.5467 -169.524
lowerback 9.3847 -1.22072 6.47755
upperback 1.72514 -0.854381 0.681271
thorax -3.5538 -0.450036 -2.83096
lowerneck 0.263386 0.165006 2.12661
upperneck 2.36337 0.218201 0.868325
head 0.674182 0.143854 -0.0824917
rclavicle 6.27663e-014 2.18663e-015
rhumerus -33.6548 -14.0361 -83.9385
rradius 18.1659
rwrist 16.4528
rhand -21.3847 -5.81172
rfingers 7.12502
rthumb 5.00289 -35.7327
lclavicle 6.27663e-014 2.18663e-015
lhumerus -28.6563 7.89023 84.9168
lradius 4.17489
lwrist 14.2433
lhand -26.562 15.6039
lfingers 7.12502
lthumb 0.00297289 45.5836
rfemur 0.0769179 5.67247 33.2704
rtibia 34.4611
rfoot -17.1678 -12.4794
rtoes 1.50079
lfemur -28.82 9.61564 -16.3763
ltibia 39.5451
lfoot -8.88568 -1.69709
ltoes -10.5134
863
root 4.89315 17.0898 8.19606 -170.871 56.7364 -169.846
lowerback 9.49383 -1.18585 6.24967
upperback 1.77042 -0.826971 0.610943
thorax -3.56237 -0.433523 -2.77915
lowerneck 0.283265 0.178115 2.13761
upperneck 2.42247 0.236073 0.879343
head 0.689138 0.153938 -0.0808688
rclavicle 1.11419e-013 -2.44505e-014
rhumerus -33.6035 -13.987 -84.0148
rradius 18.187
rwrist 16.3792
rhand -21.4201 -5.82096
rfingers 7.12502
rthumb 4.96872 -35.7427
lclavicle 1.11419e-013 -2.44505e-014
lhumerus -28.6675 7.87112 84.8924
lradius 4.05057
lwrist 14.3206
lhand -26.5844 15.6072
lfingers 7.12502
lthumb -0.0186855 45.587
rfemur -0.733765 5.54973 32.966
rtibia 36.5982
rfoot -17.2614 -12.329
rtoes 1.00817
lfemur -28.0672 9.58763 -16.6785
ltibia 37.4562
lfoot -8.5588 -1.7727
ltoes -10.2657
864
root 5.04665 17.0628 8.08964 -171.454 56.9474 -170.221
lowerback 9.60668 -1.15064 5.99007
upperback 1.81885 -0.802945 0.532173
thorax -3.56984 -0.418313 -2.71787
lowerneck 0.303535 0.197651 2.15143
upperneck 2.48445 0.26257 0.887297
head 0.704993 0.168388 -0.0805869
rclavicle 2.10712e-014 -9.93923e-015
rhumerus -33.5585 -13.9492 -84.0909
rradius 18.2022
rwrist 16.3138
rhand -21.4553 -5.82953
rfingers 7.12502
rthumb 4.93475 -35.7521
lclavicle 2.10712e-014 -9.93923e-015
lhumerus -28.665 7.87467 84.8571
lradius 3.93176
lwrist 14.3688
lhand -26.6081 15.6054
lfingers 7.12502
lthumb -0.0415472 45.5852
rfemur -1.59409 5.48554 32.6247
rtibia 38.6889
rfoot -17.3487 -12.1885
rtoes 0.559988
lfemur -27.1878 9.56297 -16.9928
ltibia 35.3339
lfoot -8.15208 -1.83013
ltoes -9.98167
865
root 5.19962 17.0373 7.98386 -172.085 57.1759 -170.646
lowerback 9.72451 -1.11558 5.70202
upperback 1.86968 -0.782574 0.445229
thorax -3.57779 -0.40462 -2.6486
lowerneck 0.323615 0.222681 2.16834
upperneck 2.55069 0.296425 0.892872
head 0.722262 0.186602 -0.0814896
rclavicle -8.91052e-014 9.74045e-015
rhumerus -33.5206 -13.9149 -84.1714
rradius 18.2125
rwrist 16.2481
rhand -21.4898 -5.83929
rfingers 7.12502
rthumb 4.90139 -35.7626
lclavicle -8.91052e-014 9.74045e-015
lhumerus -28.6537 7.89774 84.8103
lradius 3.82726
lwrist 14.391
lhand -26.635 15.6045
lfingers 7.12502
lthumb -0.0675362 45.5842
rfemur -2.50045 5.47814 32.2508
rtibia 40.7144
rfoot -17.4279 -12.0569
rtoes 0.157631
lfemur -26.1922 9.54016 -17.3159
ltibia 33.1931
lfoot -7.67168 -1.87047
ltoes -9.66633
866
root 5.35188 17.0138 7.87877 -172.76 57.4158 -171.116
lowerback 9.8488 -1.08199 5.39203
upperback 1.92277 -0.766777 0.350989
thorax -3.58731 -0.392951 -2.57392
lowerneck 0.344383 0.252535 2.18775
upperneck 2.61897 0.336775 0.896663
head 0.740113 0.208119 -0.0833006
rclavicle -3.50358e-014 3.97569e-015
rhumerus -33.4913 -13.8904 -84.2525
rradius 18.2191
rwrist 16.1885
rhand -21.5154 -5.85049
rfingers 7.12502
rthumb 4.87674 -35.7744
lclavicle -3.50358e-014 3.97569e-015
lhumerus -28.6301 7.93866 84.7538
lradius 3.7303
lwrist 14.3881
lhand -26.6668 15.5994
lfingers 7.12502
lthumb -0.0982889 45.5791
rfemur -3.44984 5.52097 31.8483
rtibia 42.6588
rfoot -17.4861 -11.9352
rtoes -0.236113
lfemur -25.0915 9.51506 -17.6437
ltibia 31.0493
lfoot -7.12655 -1.89396
ltoes -9.31941
867
root 5.50325 16.993 7.77451 -173.47 57.6628 -171.624
lowerback 9.97913 -1.05061 5.06714
upperback 1.97657 -0.755813 0.251083
thorax -3.59983 -0.383549 -2.496
lowerneck 0.365443 0.286611 2.20917
upperneck 2.68963 0.382807 0.898733
head 0.758718 0.232534 -0.0859259
rclavicle -5.30755e-014 -4.17448e-015
rhumerus -33.4716 -13.8709 -84.3352
rradius 18.2226
rwrist 16.136
rhand -21.534 -5.86546
rfingers 7.12502
rthumb 4.85876 -35.7897
lclavicle -5.30755e-014 -4.17448e-015
lhumerus -28.6017 7.9956 84.6876
lradius 3.65335
lwrist 14.3651
lhand -26.7041 15.5931
lfingers 7.12502
lthumb -0.13433 45.5728
rfemur -4.44195 5.60692 31.4217
rtibia 44.5087
rfoot -17.5226 -11.816
rtoes -0.593136
lfemur -23.9015 9.4868 -17.9722
ltibia 28.9186
lfoot -6.52768 -1.89773
ltoes -8.96515
868
root 5.65366 16.9751 7.67126 -174.203 57.9144 -172.155
lowerback 10.1153 -1.02159 4.73436
upperback 2.03065 -0.749043 0.148723
thorax -3.61564 -0.376124 -2.41554
lowerneck 0.386162 0.323831 2.23216
upperneck 2.76175 0.433081 0.898029
head 0.777896 0.259095 -0.0896163
rclavicle 4.2043e-014 7.15625e-015
rhumerus -33.4614 -13.8548 -84.4183
rradius 18.2214
rwrist 16.0865
rhand -21.548 -5.87805
rfingers 7.12502
rthumb 4.8452 -35.8027
lclavicle 4.2043e-014 7.15625e-015
lhumerus -28.5641 8.06861 84.6144
lradius 3.58826
lwrist 14.3244
lhand -26.7473 15.5862
lfingers 7.12502
lthumb -0.176064 45.5658
rfemur -5.47454 5.7355 30.9799
rtibia 46.2523
rfoot -17.532 -11.7027
rtoes -0.921811
lfemur -22.6367 9.45707 -18.2937
ltibia 26.8186
lfoot -5.88324 -1.88015
ltoes -8.56816
